<?xml version="1.0" ?><!DOCTYPE svg  PUBLIC '-//W3C//DTD SVG 1.1//EN'  'http://www.w3.org/Graphics/SVG/1.1/DTD/svg11.dtd'><svg height="8.4666mm" style="shape-rendering:geometricPrecision; text-rendering:geometricPrecision; image-rendering:optimizeQuality; fill-rule:evenodd; clip-rule:evenodd" version="1.1" viewBox="0 0 846.66 846.66" width="8.4666mm" xml:space="preserve" xmlns="http://www.w3.org/2000/svg" xmlns:xlink="http://www.w3.org/1999/xlink"><defs><style type="text/css">
   <![CDATA[
    .fil0 {fill:rgb(235, 235, 235);fill-rule:nonzero}
   ]]>
  </style></defs><g id="Layer_x0020_1"><path class="fil0" d="M563.72 795.24c27.16,0 27.16,41.29 0,41.29l-435.53 0c-36.17,0 -65.77,-29.62 -65.77,-65.78l0 -595.76c0,-36.22 29.55,-65.77 65.77,-65.77l5.06 0 0 -78.44c0,-11.4 9.24,-20.65 20.64,-20.65l609.71 0c11.4,0 20.64,9.25 20.64,20.65l0 614.07c0,11.4 -9.24,20.65 -20.64,20.65l-68.65 0 0 57.85c0,27.16 -41.29,27.16 -41.29,0l0 -408.05 -131.42 -164.79 -394.05 0c-13.42,0 -24.48,11.06 -24.48,24.48l0 595.76c0,13.49 11,24.49 24.48,24.49l435.53 0zm-389.18 -686.02l357.59 0c7,0 13.18,3.48 16.91,8.8l141.39 177.3c3.02,3.79 4.48,8.32 4.48,12.82l0.04 316.07 48 0 0 -572.79 -568.41 0 0 57.8zm9.97 461.88c-27.16,0 -27.16,-41.29 0,-41.29l323.43 0c27.15,0 27.15,41.29 0,41.29l-323.43 0zm2.19 161.71c-27.16,0 -27.16,-41.29 0,-41.29l323.42 0c27.16,0 27.16,41.29 0,41.29l-323.42 0zm0 -80.86c-27.16,0 -27.16,-41.29 0,-41.29l323.42 0c27.16,0 27.16,41.29 0,41.29l-323.42 0zm69.92 -439.02l96.16 0c46.25,0 84.02,37.77 84.02,84.02l0 96.16c0,46.25 -37.77,84.02 -84.02,84.02l-96.16 0c-46.25,0 -84.01,-37.77 -84.01,-84.02l0 -96.16c0,-46.25 37.76,-84.02 84.01,-84.02zm96.16 41.3l-96.16 0c-23.45,0 -42.72,19.27 -42.72,42.72l0 96.16c0,23.45 19.27,42.73 42.72,42.73l96.16 0c23.46,0 42.73,-19.28 42.73,-42.73l0 -96.16c0,-23.45 -19.28,-42.72 -42.73,-42.72z"/></g></svg>